<?xml version="1.0" encoding="UTF-8"?>
<svg id="Capa_2" data-name="Capa 2" xmlns="http://www.w3.org/2000/svg" xmlns:xlink="http://www.w3.org/1999/xlink" viewBox="0 0 1352.42 287.24">
  <defs>
    <style>
      .cls-1 {
        fill: url(#Degradado_sin_nombre_361);
      }

      .cls-2 {
        fill: none;
        stroke: #102e48;
        stroke-miterlimit: 10;
        stroke-width: 2px;
      }
    </style>
    <linearGradient id="Degradado_sin_nombre_361" data-name="Degradado sin nombre 361" x1="0" y1="143.62" x2="468.88" y2="143.62" gradientUnits="userSpaceOnUse">
      <stop offset="0" stop-color="#193f7b"/>
      <stop offset=".21" stop-color="#13305e"/>
      <stop offset=".56" stop-color="#0a1a34"/>
      <stop offset=".84" stop-color="#040c1a"/>
      <stop offset="1" stop-color="#030811"/>
    </linearGradient>
  </defs>
  <g id="Capa_1-2" data-name="Capa 1">
    <g>
      <path class="cls-1" d="M461.28,183.82c-5.07-9.5-11.79-17.84-20.15-25-8.36-7.16-17.65-13.56-27.85-19.2-10.2-5.64-20.56-10.99-31.08-16.06-9.25-4.43-18.06-8.93-26.42-13.5-8.36-4.56-15.87-9.47-22.53-14.73-6.65-5.26-11.91-11.15-15.78-17.68-3.87-6.53-5.8-14.03-5.8-22.53,0-7.73,2.47-14.86,7.41-21.39,4.94-6.53,11.41-11.75,19.39-15.68,7.98-3.93,16.47-5.89,25.47-5.89,8.24,0,16.41,1.93,24.52,5.8,8.11,3.87,15.46,10.17,22.05,18.92,6.59,8.74,11.85,20.41,15.78,34.98l32.7-35.17c-11.03-12.29-24.68-21.48-40.97-27.56-16.29-6.08-33.05-9.12-50.28-9.12-12.55.13-24.56,1.68-36.02,4.66-11.47,2.98-21.7,7.38-30.7,13.21-.86.56-1.7,1.14-2.53,1.73-3.79-3.7-8.06-6.89-12.83-9.53-12.17-6.72-25.92-10.08-41.25-10.08-19.01,0-35.55,4.09-49.62,12.26-3.49,2.03-6.83,4.23-10.01,6.6l8.16-15.53H13.69L0,59.79c6.72-11.15,15.94-20.82,27.66-28.99,11.72-8.17,23.54-12.45,35.45-12.83h76.61L0,283.91h179.07l3.56-14.5c2.57,2.01,5.22,3.91,7.98,5.66,12.8,8.11,27.56,12.17,44.29,12.17,14.57,0,26.74-1.97,36.5-5.89,8.65-3.48,15.77-7.76,21.38-12.84,3.27,3.76,7.49,6.94,15.36,9.61,17.93,6.08,36.66,9.12,56.17,9.12,13.31,0,26.2-1.49,38.68-4.47,12.48-2.98,23.67-7.38,33.55-13.21,9.88-5.83,17.74-13.12,23.57-21.86,5.83-8.74,8.74-18.88,8.74-30.42,0-12.8-2.54-23.95-7.6-33.46ZM129.65,269.27H53.23l81.42-154.97c-1.44,9.87-2.19,19.86-2.19,29.98,0,17.87,2.19,35.33,6.56,52.37,4.37,17.05,10.87,32.35,19.48,45.91,2.78,4.37,5.79,8.42,9,12.23-.8.58-1.58,1.18-2.4,1.75-11.72,8.11-23.54,12.36-35.45,12.74ZM277.31,265.76c-8.11,3.3-17.3,4.94-27.56,4.94-12.17,0-22.75-3.64-31.75-10.93-9-7.29-16.44-17.04-22.34-29.27-5.89-12.23-10.33-26.01-13.31-41.35-2.98-15.33-4.47-31.05-4.47-47.14s1.45-31.87,4.37-47.33c2.91-15.46,7.25-29.34,13.02-41.63,5.77-12.29,12.93-22.11,21.48-29.47,8.55-7.35,18.47-11.03,29.75-11.03,9.63.26,17.9,5.04,24.81,14.35,3.18,4.29,5.59,9.13,7.31,14.48-4.69,8.37-7.06,17.95-7.06,28.77,0,12.67,2.41,23.67,7.22,32.98,4.81,9.31,11.18,17.43,19.11,24.33,2.44,2.13,4.99,4.19,7.61,6.18h-68.5c13.05,3.8,23.06,9.35,30.04,16.63,6.97,7.29,10.45,14.67,10.45,22.15l-.19,93.34ZM416.6,253.69c-5.45,6.53-12.55,11.76-21.29,15.68-8.74,3.93-18.06,5.89-27.94,5.89-9,0-17.94-1.93-26.8-5.8-8.87-3.86-16.89-10.2-24.05-19.01-2.21-2.72-4.28-5.76-6.22-9.03,1.31-4.07,2.11-7.87,2.36-11.41l-.19-68.44c0-7.06,1.71-13.62,5.05-19.68,2.27,1.41,4.6,2.77,6.98,4.1,9.82,5.45,19.8,10.58,29.94,15.4,9.12,4.44,17.87,8.9,26.23,13.4,8.36,4.5,15.84,9.48,22.43,14.92,6.59,5.45,11.85,11.63,15.78,18.53,3.93,6.91,5.89,14.92,5.89,24.05,0,7.73-2.73,14.86-8.17,21.39Z"/>
      <g>
        <g>
          <g>
            <path d="M496.35,153.99v-4.51l95.67-123.68.56,2.44h-95.29v-5.83h101.5v4.51l-95.67,123.68-.38-2.44h98.11v5.83h-104.5Z"/>
            <path d="M609.12,153.99l60.9-131.57h6.2l60.9,131.57h-6.95l-58.45-127.25h2.82l-58.46,127.25h-6.95ZM630.18,115.45l2.44-5.45h80.45l2.44,5.45h-85.33Z"/>
            <path d="M762.69,153.99V22.42h5.26l62.03,107.7h-2.82l61.65-107.7h5.26l.19,131.57h-6.2l-.19-122.17h2.07l-59.77,103.94h-3.38l-60.15-103.94h2.26v122.17h-6.2Z"/>
            <path d="M996.88,154.74c-9.65,0-18.61-1.66-26.88-4.98-8.27-3.32-15.48-7.99-21.61-14-6.14-6.01-10.9-13.06-14.29-21.14-3.38-8.08-5.07-16.88-5.07-26.41s1.69-18.33,5.07-26.41c3.38-8.08,8.14-15.13,14.29-21.14,6.14-6.01,13.34-10.68,21.61-14,8.27-3.32,17.29-4.98,27.07-4.98s18.61,1.66,26.88,4.98c8.27,3.32,15.44,7.99,21.52,14,6.08,6.01,10.84,13.03,14.29,21.05,3.44,8.02,5.17,16.85,5.17,26.5s-1.72,18.33-5.17,26.41c-3.45,8.08-8.21,15.13-14.29,21.14-6.08,6.02-13.25,10.68-21.52,14-8.27,3.32-17.29,4.98-27.07,4.98ZM996.88,148.91c8.77,0,16.92-1.5,24.43-4.51,7.52-3.01,14.07-7.27,19.64-12.78,5.57-5.51,9.9-11.94,12.97-19.27,3.07-7.33,4.6-15.38,4.6-24.15s-1.54-16.82-4.6-24.15c-3.07-7.33-7.4-13.75-12.97-19.27-5.58-5.51-12.12-9.77-19.64-12.78-7.52-3.01-15.66-4.51-24.43-4.51s-16.73,1.5-24.25,4.51c-7.52,3.01-14.07,7.27-19.64,12.78-5.58,5.52-9.9,11.97-12.97,19.36-3.07,7.39-4.6,15.41-4.6,24.06s1.53,16.82,4.6,24.15c3.07,7.33,7.39,13.75,12.97,19.27,5.57,5.52,12.12,9.77,19.64,12.78,7.52,3.01,15.6,4.51,24.25,4.51Z"/>
            <path d="M1099.69,153.99V22.42h45.67c10.9,0,20.27,1.76,28.1,5.26,7.83,3.51,13.81,8.49,17.95,14.94,4.13,6.46,6.2,14.25,6.2,23.4s-2.07,16.98-6.2,23.5c-4.14,6.52-10.12,11.53-17.95,15.04-7.83,3.51-17.2,5.26-28.1,5.26h-42.1l2.82-3.01v47.18h-6.39ZM1106.08,106.81l-2.82-2.82h42.48c14.78,0,26.09-3.32,33.93-9.96,7.83-6.64,11.75-15.98,11.75-28.01s-3.92-21.33-11.75-27.91c-7.83-6.58-19.14-9.87-33.93-9.87h-42.48l2.82-3.01v81.57ZM1192.17,153.99l-34.21-47.74h7.33l34.4,47.74h-7.52Z"/>
            <path d="M1211.9,153.99l60.9-131.57h6.2l60.9,131.57h-6.95l-58.46-127.25h2.82l-58.45,127.25h-6.95ZM1232.95,115.45l2.44-5.45h80.44l2.44,5.45h-85.33Z"/>
          </g>
          <g>
            <path d="M528.87,269.44c-4.81,0-9.26-.82-13.36-2.45s-7.67-3.93-10.72-6.89c-3.05-2.96-5.41-6.42-7.07-10.4-1.66-3.97-2.5-8.3-2.5-12.99s.83-9.01,2.5-12.99c1.66-3.97,4.02-7.44,7.07-10.4,3.05-2.96,6.62-5.25,10.72-6.89,4.1-1.63,8.55-2.45,13.36-2.45,4.5,0,8.72.71,12.66,2.13,3.94,1.42,7.3,3.54,10.08,6.38l-1.85,2.13c-2.96-2.83-6.16-4.84-9.61-6.01-3.45-1.17-7.18-1.76-11.18-1.76-4.38,0-8.43.76-12.16,2.26-3.73,1.51-6.98,3.62-9.75,6.33-2.77,2.71-4.92,5.87-6.42,9.47-1.51,3.6-2.26,7.53-2.26,11.78s.75,8.18,2.26,11.78c1.51,3.6,3.65,6.76,6.42,9.47,2.77,2.71,6.02,4.82,9.75,6.33,3.73,1.51,7.78,2.26,12.16,2.26,3.94,0,7.69-.6,11.23-1.8,3.54-1.2,6.7-3.19,9.47-5.96l1.85,2.31c-2.83,2.77-6.23,4.85-10.17,6.24-3.94,1.39-8.1,2.08-12.48,2.08ZM548.56,260.94v-23.75h2.96v23.94l-2.96-.19Z"/>
            <path d="M573.33,269.07v-64.7h3.14v61.84h37.9v2.86h-41.04Z"/>
            <path d="M652.54,269.44c-4.74,0-9.15-.82-13.22-2.45-4.07-1.63-7.61-3.93-10.63-6.89-3.02-2.96-5.36-6.42-7.02-10.4-1.66-3.97-2.5-8.3-2.5-12.99s.83-9.01,2.5-12.99c1.66-3.97,4-7.44,7.02-10.4,3.02-2.96,6.56-5.25,10.63-6.89,4.07-1.63,8.5-2.45,13.31-2.45s9.15.82,13.22,2.45c4.07,1.63,7.59,3.93,10.58,6.89,2.99,2.96,5.33,6.41,7.02,10.35,1.69,3.94,2.54,8.29,2.54,13.03s-.85,9.01-2.54,12.99c-1.7,3.97-4.04,7.44-7.02,10.4-2.99,2.96-6.52,5.25-10.58,6.89s-8.5,2.45-13.31,2.45ZM652.54,266.58c4.31,0,8.32-.74,12.02-2.22,3.7-1.48,6.92-3.57,9.66-6.28,2.74-2.71,4.87-5.87,6.38-9.47,1.51-3.6,2.26-7.56,2.26-11.88s-.76-8.27-2.26-11.88c-1.51-3.6-3.64-6.76-6.38-9.47-2.74-2.71-5.96-4.81-9.66-6.28-3.7-1.48-7.7-2.22-12.02-2.22s-8.23.74-11.92,2.22c-3.7,1.48-6.92,3.57-9.66,6.28-2.74,2.71-4.87,5.89-6.38,9.52-1.51,3.64-2.26,7.58-2.26,11.83s.75,8.27,2.26,11.88c1.51,3.6,3.63,6.76,6.38,9.47,2.74,2.71,5.96,4.81,9.66,6.28,3.7,1.48,7.67,2.22,11.92,2.22Z"/>
            <path d="M703.1,269.07v-64.7h26.25c6.78,0,12.12,1.39,16.04,4.16,3.91,2.77,5.87,6.87,5.87,12.29,0,3.51-.85,6.47-2.54,8.87-1.69,2.4-4.04,4.19-7.02,5.36-2.99,1.17-6.42,1.76-10.3,1.76l1.57-1.48c4.81,0,8.81.65,12.02,1.94,3.2,1.29,5.64,3.17,7.3,5.64,1.66,2.47,2.5,5.52,2.5,9.15,0,5.42-1.96,9.61-5.87,12.57-3.91,2.96-9.81,4.44-17.7,4.44h-28.1ZM706.25,266.3h25.14c6.59,0,11.61-1.16,15.06-3.47,3.45-2.31,5.18-5.93,5.18-10.86s-1.73-8.64-5.18-10.95c-3.45-2.31-8.47-3.47-15.06-3.47h-25.7v-2.68h23.75c5.92,0,10.52-1.17,13.82-3.51,3.3-2.34,4.95-5.79,4.95-10.35s-1.65-8.01-4.95-10.35c-3.3-2.34-7.9-3.51-13.82-3.51h-23.2v59.15Z"/>
            <path d="M761.24,269.07l29.95-64.7h3.05l29.95,64.7h-3.42l-28.75-62.57h1.39l-28.75,62.57h-3.42ZM771.59,250.13l1.2-2.68h39.56l1.2,2.68h-41.96Z"/>
            <path d="M836.76,269.07v-64.7h3.14v61.84h37.9v2.86h-41.04Z"/>
            <path d="M930.29,269.44c-4.75,0-9.23-.85-13.45-2.54-4.22-1.69-7.44-3.84-9.66-6.42l1.66-2.22c2.09,2.34,5.07,4.33,8.92,5.96,3.85,1.63,8,2.45,12.43,2.45s8.19-.62,11.09-1.85c2.9-1.23,5.04-2.88,6.42-4.94,1.39-2.06,2.08-4.36,2.08-6.89,0-2.96-.74-5.33-2.22-7.12-1.48-1.79-3.44-3.2-5.87-4.25-2.43-1.05-5.08-1.91-7.95-2.59-2.87-.68-5.76-1.4-8.69-2.17-2.93-.77-5.61-1.76-8.04-2.96-2.43-1.2-4.38-2.86-5.82-4.99-1.45-2.13-2.17-4.88-2.17-8.27,0-2.9.77-5.61,2.31-8.13,1.54-2.53,3.94-4.57,7.21-6.15,3.27-1.57,7.45-2.36,12.57-2.36,3.51,0,6.98.54,10.4,1.62,3.42,1.08,6.33,2.51,8.74,4.3l-1.39,2.5c-2.59-1.91-5.45-3.33-8.6-4.25-3.14-.93-6.16-1.39-9.06-1.39-4.31,0-7.9.63-10.77,1.9-2.87,1.26-4.98,2.94-6.33,5.04-1.36,2.09-2.03,4.41-2.03,6.93,0,3.02.74,5.42,2.22,7.21,1.48,1.79,3.43,3.2,5.87,4.25,2.43,1.05,5.1,1.91,7.99,2.59,2.9.68,5.79,1.4,8.69,2.17,2.9.77,5.56,1.77,8,3,2.43,1.23,4.37,2.88,5.82,4.95,1.45,2.06,2.17,4.76,2.17,8.09,0,2.9-.78,5.61-2.36,8.13-1.57,2.53-4.04,4.56-7.4,6.1-3.36,1.54-7.63,2.31-12.8,2.31Z"/>
            <path d="M972.9,266.21h40.58v2.86h-43.72v-64.7h42.43v2.86h-39.28v58.97ZM972.35,234.78h35.68v2.86h-35.68v-2.86Z"/>
            <path d="M1031.5,269.07v-64.7h22.46c5.36,0,9.97.86,13.82,2.59,3.85,1.73,6.79,4.17,8.83,7.35,2.03,3.17,3.05,7.01,3.05,11.51s-1.02,8.35-3.05,11.55c-2.03,3.21-4.98,5.67-8.83,7.39-3.85,1.73-8.46,2.59-13.82,2.59h-20.71l1.39-1.48v23.2h-3.14ZM1034.65,245.87l-1.39-1.39h20.89c7.27,0,12.83-1.63,16.68-4.9,3.85-3.26,5.78-7.86,5.78-13.77s-1.93-10.49-5.78-13.73c-3.85-3.23-9.41-4.85-16.68-4.85h-20.89l1.39-1.48v40.12ZM1076.98,269.07l-16.82-23.48h3.6l16.92,23.48h-3.7Z"/>
            <path d="M1115.8,269.07l-29.02-64.7h3.51l28.01,62.57h-1.76l28.01-62.57h3.33l-29.02,64.7h-3.05Z"/>
            <path d="M1159.06,269.07v-64.7h3.14v64.7h-3.14Z"/>
            <path d="M1212.67,269.44c-4.75,0-9.15-.82-13.22-2.45s-7.61-3.93-10.63-6.89c-3.02-2.96-5.36-6.42-7.03-10.4-1.66-3.97-2.5-8.3-2.5-12.99s.83-9.01,2.5-12.99c1.67-3.97,4.01-7.44,7.03-10.4,3.02-2.96,6.56-5.25,10.63-6.89,4.07-1.63,8.47-2.45,13.22-2.45,4.37,0,8.5.71,12.38,2.13,3.88,1.42,7.24,3.57,10.07,6.47l-1.94,2.03c-2.9-2.77-6.05-4.76-9.47-5.96-3.42-1.2-7.07-1.8-10.95-1.8-4.31,0-8.32.76-12.02,2.26-3.7,1.51-6.92,3.62-9.66,6.33-2.74,2.71-4.87,5.87-6.38,9.47-1.51,3.6-2.26,7.53-2.26,11.78s.75,8.18,2.26,11.78c1.51,3.6,3.64,6.76,6.38,9.47,2.74,2.71,5.96,4.82,9.66,6.33,3.7,1.51,7.7,2.26,12.02,2.26,3.88,0,7.53-.6,10.95-1.8,3.42-1.2,6.58-3.22,9.47-6.05l1.94,2.03c-2.83,2.9-6.19,5.07-10.07,6.52-3.88,1.45-8.01,2.17-12.38,2.17Z"/>
            <path d="M1254.91,266.21h40.58v2.86h-43.72v-64.7h42.43v2.86h-39.28v58.97ZM1254.35,234.78h35.68v2.86h-35.68v-2.86Z"/>
            <path d="M1329.87,269.44c-4.75,0-9.23-.85-13.45-2.54-4.22-1.69-7.44-3.84-9.66-6.42l1.66-2.22c2.09,2.34,5.07,4.33,8.92,5.96,3.85,1.63,8,2.45,12.43,2.45s8.19-.62,11.09-1.85c2.89-1.23,5.04-2.88,6.42-4.94,1.39-2.06,2.08-4.36,2.08-6.89,0-2.96-.74-5.33-2.22-7.12-1.48-1.79-3.43-3.2-5.87-4.25-2.43-1.05-5.08-1.91-7.95-2.59-2.86-.68-5.76-1.4-8.69-2.17-2.93-.77-5.61-1.76-8.04-2.96-2.43-1.2-4.38-2.86-5.82-4.99-1.45-2.13-2.17-4.88-2.17-8.27,0-2.9.77-5.61,2.31-8.13,1.54-2.53,3.94-4.57,7.21-6.15,3.26-1.57,7.46-2.36,12.57-2.36,3.51,0,6.98.54,10.4,1.62,3.42,1.08,6.33,2.51,8.73,4.3l-1.39,2.5c-2.59-1.91-5.45-3.33-8.6-4.25-3.14-.93-6.16-1.39-9.06-1.39-4.31,0-7.9.63-10.77,1.9-2.86,1.26-4.98,2.94-6.33,5.04-1.36,2.09-2.03,4.41-2.03,6.93,0,3.02.74,5.42,2.22,7.21,1.48,1.79,3.43,3.2,5.87,4.25,2.43,1.05,5.1,1.91,8,2.59,2.9.68,5.79,1.4,8.69,2.17,2.9.77,5.56,1.77,7.99,3,2.43,1.23,4.37,2.88,5.82,4.95,1.45,2.06,2.17,4.76,2.17,8.09,0,2.9-.79,5.61-2.36,8.13-1.57,2.53-4.04,4.56-7.39,6.1-3.36,1.54-7.63,2.31-12.8,2.31Z"/>
          </g>
        </g>
        <line class="cls-2" x1="499.99" y1="188.22" x2="1344.65" y2="188.22"/>
      </g>
    </g>
  </g>
</svg>